<svg width="11" height="11" fill="none" xmlns="http://www.w3.org/2000/svg"><path fill-rule="evenodd" clip-rule="evenodd" d="M1.833 1.375a.458.458 0 0 0-.458.458v4.125a.458.458 0 0 0 .458.458h.459a.458.458 0 0 1 0 .917h-.459A1.375 1.375 0 0 1 .458 5.958V1.833A1.375 1.375 0 0 1 1.833.458h4.125a1.375 1.375 0 0 1 1.375 1.375v.458a.458.458 0 1 1-.916 0v-.458a.458.458 0 0 0-.459-.458H1.833zm3.209 3.208a.458.458 0 0 0-.459.458v4.125c0 .253.205.459.459.459h4.125a.458.458 0 0 0 .458-.459V5.041a.458.458 0 0 0-.458-.458H5.042zm-1.375.458c0-.76.615-1.375 1.375-1.375h4.125c.759 0 1.375.616 1.375 1.375v4.125c0 .76-.616 1.375-1.375 1.375H5.042c-.76 0-1.375-.615-1.375-1.375V5.041z" fill="#5981F3"/></svg>
